<?xml version="1.0" encoding="utf-8"?>
<!-- Generator: Adobe Illustrator 18.0.0, SVG Export Plug-In . SVG Version: 6.00 Build 0)  -->
<!DOCTYPE svg PUBLIC "-//W3C//DTD SVG 1.1//EN" "http://www.w3.org/Graphics/SVG/1.1/DTD/svg11.dtd">
<svg version="1.1" id="Livello_1" xmlns="http://www.w3.org/2000/svg" xmlns:xlink="http://www.w3.org/1999/xlink" x="0px" y="0px"
	 viewBox="0 0 283.5 283.5" enable-background="new 0 0 283.5 283.5" xml:space="preserve">
<linearGradient id="gambo_1_" gradientUnits="userSpaceOnUse" x1="44.6747" y1="163.51" x2="133.3855" y2="163.51" gradientTransform="matrix(1.5118 0 0 -1.5118 0 460.8076)">
	<stop  offset="0" style="stop-color:#FFEDC0"/>
	<stop  offset="1" style="stop-color:#8E7362"/>
</linearGradient>
<path id="gambo" fill="url(#gambo_1_)" stroke="#000000" stroke-miterlimit="10" d="M193.7,187.5c-1.5-2.4-3.2-5-4.7-7.4
	c-14.8,2.9-30.7,4.4-47.3,4.4c-22.8,0-44.3-2.9-63.3-8c-0.5,0.9-0.9,2-1.4,2.9c-2.3,4.8-4.4,9.7-6.5,14.7c-1.7,4.1-2.7,8.5-2.9,12.9
	c-0.3,5.6,1.2,11,3.8,16.2c4.2,8,11,14.2,19.7,18.9c10.9,5.9,23,8.8,36,8.8c4.8,0,9.5-0.3,14.2-0.9c13.2-1.8,25.5-5.4,37.3-10.6
	c5.7-2.6,11-5.6,15.3-9.8c3.5-3.3,6-7.1,7.1-11.6c1.2-4.5,0.8-9.1-0.2-13.6C199.6,198.1,197,192.7,193.7,187.5z"/>
<linearGradient id="cappello_1_" gradientUnits="userSpaceOnUse" x1="0.5" y1="232.86" x2="187" y2="232.86" gradientTransform="matrix(1.5118 0 0 -1.5118 0 460.8076)">
	<stop  offset="0" style="stop-color:#EE0000"/>
	<stop  offset="1" style="stop-color:#240000"/>
</linearGradient>
<path id="cappello" fill="url(#cappello_1_)" stroke="#000000" stroke-miterlimit="10" d="M282.7,108.8c0,41.9-63,75.7-140.9,75.7
	s-141-34-141-75.7c0-18.1,32.2-32.7,52.2-45.7C78.8,46,97.7,33,141.7,33c37.3,0,51.7,12.1,76.9,24.9C246,71.7,282.7,87,282.7,108.8z
	"/>
<path id="puntini" fill="#FFFFFF" d="M144,90c0-10.2,8.3-18.5,18.5-18.5S181,79.7,181,90s-8.3,18.5-18.5,18.5S144,100.2,144,90z
	 M242,76.5c-9.4,0-17,7.6-17,17s7.6,17,17,17s17-7.6,17-17S251.4,76.5,242,76.5z M173,146.5c0,9.4,7.6,17,17,17s17-7.6,17-17
	s-7.6-17-17-17S173,137.1,173,146.5z M152,43.5c0,9.4,7.6,17,17,17s17-7.6,17-17c0-0.8-0.1-1.5-0.2-2.3c-8.8-3.7-18.3-6.4-30.7-7.5
	C153.2,36.4,152,39.8,152,43.5z M93,44c0,12.4,10.1,22.5,22.5,22.5S138,56.4,138,44c0-3.9-1-7.6-2.8-10.8c-17.3,0.5-30.5,3.2-42,7.5
	C93.1,41.7,93,42.8,93,44z M66,91.5c9.4,0,17-7.6,17-17s-7.6-17-17-17c-2.3,0-4.4,0.5-6.4,1.3c-1.8,1.2-3.6,2.4-5.5,3.6
	C51,65.4,49,69.7,49,74.5C49,83.8,56.6,91.5,66,91.5z M54,153.5c9.4,0,17-7.6,17-17s-7.6-17-17-17s-17,7.6-17,17
	S44.6,153.5,54,153.5z M90,130c0,10.2,8.3,18.5,18.5,18.5S127,140.2,127,130s-8.3-18.5-18.5-18.5S90,119.7,90,130z"/>
</svg>
